<?xml version="1.0" encoding="UTF-8" standalone="no"?>
<!-- Created with Inkscape (http://www.inkscape.org/) -->

<svg
   xmlns:osb="http://www.openswatchbook.org/uri/2009/osb"
   xmlns:dc="http://purl.org/dc/elements/1.1/"
   xmlns:cc="http://creativecommons.org/ns#"
   xmlns:rdf="http://www.w3.org/1999/02/22-rdf-syntax-ns#"
   xmlns:svg="http://www.w3.org/2000/svg"
   xmlns="http://www.w3.org/2000/svg"
   xmlns:sodipodi="http://sodipodi.sourceforge.net/DTD/sodipodi-0.dtd"
   xmlns:inkscape="http://www.inkscape.org/namespaces/inkscape"
   width="744.09448819"
   height="1052.3622047"
   id="svg2"
   version="1.1"
   inkscape:version="0.48.4 r9939"
   sodipodi:docname="ExpenseTrackerPrototype.svg">
  <defs
     id="defs4">
    <linearGradient
       id="linearGradient5299"
       osb:paint="solid">
      <stop
         style="stop-color:#000000;stop-opacity:1;"
         offset="0"
         id="stop5301" />
    </linearGradient>
  </defs>
  <sodipodi:namedview
     id="base"
     pagecolor="#ffffff"
     bordercolor="#666666"
     borderopacity="1.0"
     inkscape:pageopacity="0.0"
     inkscape:pageshadow="2"
     inkscape:zoom="0.14080189"
     inkscape:cx="-17612.375"
     inkscape:cy="14438.312"
     inkscape:document-units="px"
     inkscape:current-layer="layer1"
     showgrid="false"
     inkscape:snap-page="true"
     inkscape:window-width="1366"
     inkscape:window-height="744"
     inkscape:window-x="0"
     inkscape:window-y="24"
     inkscape:window-maximized="1" />
  <metadata
     id="metadata7">
    <rdf:RDF>
      <cc:Work
         rdf:about="">
        <dc:format>image/svg+xml</dc:format>
        <dc:type
           rdf:resource="http://purl.org/dc/dcmitype/StillImage" />
        <dc:title></dc:title>
      </cc:Work>
    </rdf:RDF>
  </metadata>
  <g
     inkscape:label="Layer 1"
     inkscape:groupmode="layer"
     id="layer1">
    <rect
       style="fill:#008eff;fill-opacity:1;stroke:#010101;stroke-width:50;stroke-linejoin:round;stroke-miterlimit:4;stroke-opacity:1;stroke-dasharray:none"
       id="rect5309-3"
       width="930.38525"
       height="1413.3334"
       x="-18426.598"
       y="-15261.339" />
    <rect
       style="fill:#008eff;fill-opacity:1;stroke:#010101;stroke-width:50;stroke-linejoin:round;stroke-miterlimit:4;stroke-opacity:1;stroke-dasharray:none"
       id="rect5309-9"
       width="930.38525"
       height="1413.3334"
       x="-18408.846"
       y="-17072.396" />
    <rect
       style="fill:#008eff;fill-opacity:1;stroke:#010101;stroke-width:50;stroke-linejoin:round;stroke-miterlimit:4;stroke-opacity:1;stroke-dasharray:none"
       id="rect5309-7"
       width="930.38525"
       height="1413.3334"
       x="-21732.662"
       y="-14171.155" />
    <rect
       style="fill:#008eff;fill-opacity:1;stroke:#010101;stroke-width:50;stroke-linejoin:round;stroke-miterlimit:4;stroke-opacity:1;stroke-dasharray:none"
       id="rect5309-4"
       width="930.38525"
       height="1413.3334"
       x="-22947.135"
       y="-14181.809" />
    <rect
       style="fill:#008eff;fill-opacity:1;stroke:#010101;stroke-width:50;stroke-linejoin:round;stroke-miterlimit:4;stroke-opacity:1;stroke-dasharray:none"
       id="rect5309-8"
       width="930.38525"
       height="1413.3334"
       x="-22971.992"
       y="-17161.172" />
    <rect
       style="fill:#008eff;fill-opacity:1;stroke:#010101;stroke-width:50;stroke-linejoin:round;stroke-miterlimit:4;stroke-opacity:1;stroke-dasharray:none"
       id="rect5309-0"
       width="930.38525"
       height="1413.3334"
       x="-25898.092"
       y="-15730.083" />
    <rect
       style="fill:#ff0000;fill-opacity:1;stroke:#010101;stroke-width:10;stroke-linejoin:round;stroke-miterlimit:4;stroke-opacity:1;stroke-dasharray:none"
       id="rect5368"
       width="621.44055"
       height="266.33167"
       x="-25748.943"
       y="-15307.504" />
    <rect
       style="fill:#ff0000;fill-opacity:1;stroke:#010101;stroke-width:10;stroke-linejoin:round;stroke-miterlimit:4;stroke-opacity:1;stroke-dasharray:none"
       id="rect5368-6"
       width="621.44055"
       height="266.33167"
       x="-25736.516"
       y="-14911.558" />
    <text
       xml:space="preserve"
       style="font-size:103.3664856px;font-style:normal;font-weight:normal;line-height:125%;letter-spacing:0px;word-spacing:0px;fill:#000000;fill-opacity:1;stroke:none;font-family:Sans"
       x="-47599.203"
       y="-8159.9053"
       id="text5394"
       sodipodi:linespacing="125%"
       transform="scale(0.54000532,1.8518336)"><tspan
         sodipodi:role="line"
         id="tspan5396"
         x="-47599.203"
         y="-8159.9053">Start a  New Claim</tspan></text>
    <text
       xml:space="preserve"
       style="font-size:65.11994171px;font-style:normal;font-weight:normal;line-height:125%;letter-spacing:0px;word-spacing:0px;fill:#000000;fill-opacity:1;stroke:none;font-family:Sans"
       x="-38955.387"
       y="-9734.1357"
       id="text5398"
       sodipodi:linespacing="125%"
       transform="scale(0.65971355,1.5158094)"><tspan
         sodipodi:role="line"
         id="tspan5400"
         x="-38955.387"
         y="-9734.1357">Choose and Existing Claim</tspan></text>
    <path
       style="fill:#000000;fill-opacity:1;stroke:#010101;stroke-width:10;stroke-linejoin:round;stroke-miterlimit:4;stroke-opacity:1;stroke-dasharray:none"
       id="path5404"
       d="m -25028.433,-15229.928 c 19.037,6.612 37.912,13.676 56.891,20.45 40.324,15.076 81.445,27.497 123.421,36.99 46.309,11.961 94.01,14.966 141.321,20.226 22.208,2.658 44.399,5.512 66.745,6.661 13.355,0.568 26.725,0.473 40.088,0.438 1.719,-0.412 3.478,-0.685 5.157,-1.237 5.258,-1.73 17.15,-8.061 11.644,-4.798 -71.482,42.359 -44.568,25.662 -29.228,16.11 8.58,-5.443 15.642,-12.584 22.248,-20.207 6.908,-8.009 13.306,-16.436 19.939,-24.673 7.306,-9.472 13.648,-19.574 20.291,-29.498 6.742,-11.043 13.689,-21.936 20.801,-32.745 7.827,-12.418 16.734,-24.089 25.336,-35.967 8.676,-11.376 16.114,-23.397 22.914,-35.953 7.797,-17.851 17.219,-34.854 26.703,-51.843 10.938,-24.168 25.608,-46.304 39.993,-68.496 15.815,-21.212 27.083,-45.014 37.771,-69.06 10.365,-23.852 20.719,-47.706 31.17,-71.52 9.547,-17.695 19.346,-35.26 28.613,-53.104 8.461,-16.308 17.003,-32.578 25.48,-48.882 8.183,-14.927 17.917,-28.912 28.68,-42.075 9.822,-12.351 20.846,-23.666 31.507,-35.283 14.243,-15.713 31.691,-27.895 49.55,-39.1 37.541,-24.664 77.779,-44.784 117.322,-65.967 27.014,-13.186 55.334,-23.116 84.041,-31.853 35.243,-9.906 70.415,-20.899 106.575,-27.052 9.446,-1.607 18.966,-2.742 28.45,-4.113 68.568,-10.033 137.871,-13.026 207.051,-15.204 63.479,-1.52 127.01,-3.853 190.226,-9.982 58.885,-6.981 118.157,-8.9 177.268,-12.835 35.916,-1.695 71.395,-7.809 106.894,-13.136 7.236,-0.747 13.482,-4.212 19.971,-7.125 0,0 -41.234,32.599 -41.234,32.599 l 0,0 c -6.375,2.628 -12.89,4.662 -19.821,5.245 -34.699,4.352 -69.373,9.321 -104.353,10.795 -58.944,3.559 -118.012,5.56 -176.699,12.602 -63.049,5.891 -126.372,7.917 -189.668,9.2 -69.438,2.16 -138.998,5.368 -207.698,16.389 -9.582,1.551 -19.205,2.862 -28.745,4.652 -36.494,6.844 -72.07,18.077 -107.647,28.486 -28.65,9.252 -57.09,19.25 -83.962,32.984 -10.495,5.596 -14.295,7.665 -24.854,13.124 -4.297,2.222 -16.975,9.247 -12.921,6.607 9.983,-6.502 20.581,-12.01 30.75,-18.218 3.96,-2.418 -8.163,4.425 -12.122,6.845 -3.968,2.426 -7.764,5.124 -11.646,7.686 -17.578,10.689 -34.884,22.268 -48.943,37.437 -14.355,14.567 3.852,-4.23 -10.354,11.519 -7.101,7.873 -15.324,14.786 -21.466,23.521 -10.877,12.871 -20.744,26.549 -29.217,41.134 -8.627,16.203 -16.894,32.611 -25.469,48.827 -9.154,17.931 -19.108,35.495 -29.05,52.977 -10.707,23.859 -21.703,47.581 -31.711,71.75 -10.556,24.238 -21.266,48.588 -37.387,69.768 -14.215,22.109 -29.525,43.786 -39.894,68.066 -9.168,16.851 -18.885,33.485 -25.767,51.452 -13.033,22.706 6.371,-11.436 -6.529,12.431 -3.481,6.44 -7.911,12.013 -12.143,17.93 -1.432,2.002 -2.717,4.107 -4.075,6.16 -8.456,11.914 -17.607,23.344 -25.338,35.759 -7.173,10.753 -14.268,21.52 -20.636,32.782 -3.591,5.043 -6.402,10.428 -9.815,15.548 -3.234,4.85 -7.746,8.881 -10.222,14.268 -6.666,8.227 -13.138,16.549 -19.704,24.85 -6.959,7.582 -13.192,15.787 -21.889,21.598 -19.29,12.706 -40.401,24.044 -60.221,34.902 -2.178,1.193 -10.089,3.588 -12.497,4.041 -1.82,0.342 -3.691,0.324 -5.536,0.486 -13.356,-0.02 -26.72,-0.08 -40.057,-0.878 -21.826,-1.703 -43.414,-5.213 -65.095,-8.173 -47.023,-5.983 -94.428,-9.757 -140.561,-21.375 -42.509,-9.552 -84.222,-21.812 -125.302,-36.354 -19.328,-6.394 -38.561,-13.604 -58.385,-18.235 0,0 43.05,-30.354 43.05,-30.354 z"
       inkscape:connector-curvature="0" />
    <path
       style="fill:#000000;fill-opacity:1;stroke:#010101;stroke-width:10;stroke-linejoin:round;stroke-miterlimit:4;stroke-opacity:1;stroke-dasharray:none"
       id="path5406"
       d="m -23186.483,-16033.365 c -1.386,14.589 0.654,25.132 7.421,38.03 6.485,11.729 15.794,21.663 25.738,30.539 7.206,6.166 15.384,11.121 23.396,16.178 6.043,4.04 12.582,6.07 17.215,11.896 3.326,8.148 -1.96,14.323 -7.618,19.656 -18.311,13.005 -39.178,22.411 -57.907,34.512 -13.365,8.636 27.545,-15.942 41.446,-23.685 1.307,-0.727 -2.425,1.751 -3.637,2.627 -16.199,9.399 -32.398,18.797 -48.597,28.196 -1.294,0.72 -5.163,2.901 -3.881,2.16 13.638,-7.872 27.262,-15.767 40.948,-23.556 1.328,-0.755 -2.61,1.593 -3.871,2.456 -3.303,2.261 -3.624,2.717 -6.609,5.376 -6.251,5.912 -11.786,12.489 -17.342,19.038 -3.13,3.925 -6.614,7.537 -9.926,11.3 0,0 -48.758,20.107 -48.758,20.107 l 0,0 c 3.881,-3.178 6.731,-7.34 10.38,-10.781 5.282,-6.93 11.259,-13.305 17.183,-19.699 16.445,-17.057 37.302,-24.74 58.756,-37.159 12.388,-7.171 61.108,-32.354 -37.064,21.687 29.422,-18.591 98.091,-56.912 10.454,-6.926 -5.927,3.38 13.894,-10.549 9.714,-6.115 3.795,-2.515 10.225,-7.363 11.132,-12.088 -4.338,-4.982 -11.186,-6.462 -16.225,-10.65 -8.003,-5.441 -16.339,-10.494 -23.404,-17.168 -10.158,-9.534 -19.834,-19.835 -26.565,-32.142 -7.2,-13.757 -9.743,-24.318 -9.245,-39.91 0,0 46.866,-23.879 46.866,-23.879 z"
       inkscape:connector-curvature="0" />
    <path
       style="fill:#000000;fill-opacity:1;stroke:#010101;stroke-width:10;stroke-linejoin:round;stroke-miterlimit:4;stroke-opacity:1;stroke-dasharray:none"
       id="path5412"
       d="m -24957.626,-14761.915 c 16.949,0.905 33.99,-0.152 50.931,0.719 6.019,0.31 12.009,1.05 18.014,1.575 49.353,3.899 98.381,10.766 147.435,17.313 68.945,9.014 137.021,23.181 205.385,35.603 58.069,10.947 115.414,25.292 172.865,39.03 30.619,8.758 62.018,15.841 90.612,30.245 3.903,3.232 7.947,6.081 10.881,10.316 6.158,8.89 10.47,25.467 13.618,35.714 10.817,36.792 21.609,73.599 31.797,110.574 2.051,7.462 4.272,14.879 6.151,22.386 0.714,2.854 10.585,46.774 11.081,48.991 6.237,27.839 12.347,55.629 17.771,83.64 11.811,58.912 18.831,118.596 26.089,178.19 6.969,49.868 13.898,99.764 23.654,149.175 8.888,39.198 11.605,79.278 16.391,119.052 3.15,21.202 4.955,42.591 8.633,63.71 2.167,8.747 4.83,17.325 6.219,26.243 1.529,8.746 10.424,10.8 17.9,12.517 26.864,3.433 54.123,3.026 81.164,3.404 65.19,0.721 130.385,0.769 195.579,0.852 72.552,0.117 145.104,0.07 217.654,-0.455 34.962,-0.148 69.92,-0.676 104.877,-1.261 9.701,-0.148 19.402,-0.34 29.103,-0.252 10.254,0.08 20.507,0.04 30.761,0.06 10.78,0.02 21.561,-0 32.341,0 6.182,-0.685 11.067,-4.733 16.744,-6.838 2.692,-0.998 5.48,-1.537 8.268,-2.173 6.326,-1.578 12.942,-0.853 19.212,-2.486 0,0 -42.02,31.651 -42.02,31.651 l 0,0 c -6.305,0.598 -12.669,0.977 -18.784,2.774 -8.556,2.725 -16.421,7.745 -25.665,7.765 -10.782,0 -21.564,-0.02 -32.345,0 -10.306,0.02 -20.612,-0.02 -30.918,0.06 -9.47,0.08 -18.939,-0.09 -28.407,-0.254 -33.802,-0.593 -67.605,-1.119 -101.413,-1.255 -72.177,-0.522 -144.356,-0.537 -216.535,-0.357 -66.015,0.149 -132.03,0.37 -198.044,0.912 -28.093,0.15 -56.619,1.634 -84.467,-2.638 -9.375,-2.761 -19.348,-6.862 -21.492,-17.515 -1.114,-8.986 -3.583,-17.654 -5.616,-26.462 -3.041,-21.523 -4.189,-43.255 -7.037,-64.81 -4.105,-39.869 -6.271,-80.021 -15.122,-119.267 -9.593,-49.685 -15.982,-99.893 -22.837,-150.013 -6.905,-59.553 -13.567,-119.195 -25.737,-177.97 -5.548,-27.876 -11.892,-55.469 -18.379,-83.139 -3.796,-16.192 -7.278,-32.461 -11.407,-48.571 -1.919,-7.485 -4.156,-14.884 -6.233,-22.327 -10.436,-36.685 -21.482,-73.211 -33.534,-109.394 -3.07,-8.996 -8.004,-25.465 -13.464,-33.308 -2.744,-3.942 -5.817,-5.981 -9.507,-8.984 -27.404,-14.609 -57.629,-22.568 -87.347,-31.011 -56.783,-14.229 -113.507,-28.876 -171.004,-39.993 -68.483,-12.879 -136.89,-26.336 -206.112,-34.779 -49.621,-6.177 -99.25,-12.442 -149.166,-15.735 -23.715,-1.265 -47.421,-0.873 -71.158,-0.255 0,0 42.62,-30.966 42.62,-30.966 z"
       inkscape:connector-curvature="0" />
    <path
       style="fill:#000000;fill-opacity:1;stroke:#010101;stroke-width:10;stroke-linejoin:round;stroke-miterlimit:4;stroke-opacity:1;stroke-dasharray:none"
       id="path5418"
       d="m -23405.334,-13911.656 c 12.46,21.421 29.953,38.861 48.507,54.99 27.331,22.536 58.619,39.128 89.52,56.071 19.121,10.076 38.886,18.844 58.175,28.578 11.435,5.728 21.722,13.466 32.198,20.752 8.45,6.888 17.801,12.688 24.326,21.555 5.235,13.019 -5.772,18.604 -14.817,25.67 -25.495,18.123 -51.681,35.27 -77.462,52.996 -5.442,3.916 -10.794,7.961 -16.326,11.749 -6.665,4.564 -27.443,17.715 -34.344,22.336 -14.399,9.641 -28.307,19.988 -42.265,30.249 -16.856,11.32 -32.306,24.712 -49.224,35.917 -6.301,3.908 -12.434,8.116 -18.471,12.418 -48.431,27.766 -29.814,22.995 -50.418,27.966 0,0 41.56,-32.432 41.56,-32.432 l 0,0 c 17.199,-8.474 3.216,-1.654 -40.258,23.616 6.608,-3.895 12.513,-8.804 19.06,-12.823 6.869,-3.796 12.65,-8.376 18.935,-13.073 12.63,-9.438 5.832,-4.09 19.937,-14.137 4.141,-2.95 8.213,-5.995 12.319,-8.992 14.189,-10.392 28.286,-20.981 42.881,-30.802 11.311,-7.612 23.163,-14.402 34.424,-22.086 5.497,-3.751 10.737,-7.865 16.106,-11.798 25.205,-17.342 50.56,-34.473 75.627,-51.99 3.893,-2.921 7.417,-6.326 11.397,-9.127 1.169,-0.823 2.728,-1.01 3.842,-1.906 2.075,-1.669 2.899,-4.597 2.338,-7.029 -6.075,-8.398 -15.105,-13.908 -23.136,-20.264 -10.228,-7.204 -20.326,-14.759 -31.581,-20.312 -18.896,-9.905 -37.925,-19.559 -56.666,-29.757 -30.984,-17.414 -62.52,-34.208 -90.074,-56.939 -19.057,-16.381 -36.929,-33.989 -51.362,-54.683 0,0 45.252,-26.713 45.252,-26.713 z"
       inkscape:connector-curvature="0" />
    <rect
       style="fill:#ffffff;fill-opacity:1;stroke:#010101;stroke-width:10;stroke-linejoin:round;stroke-miterlimit:4;stroke-opacity:1;stroke-dasharray:none"
       id="rect5420"
       width="749.27972"
       height="227.26968"
       x="-22886.768"
       y="-17029.781" />
    <rect
       style="fill:#ffffff;fill-opacity:1;stroke:#010101;stroke-width:10;stroke-linejoin:round;stroke-miterlimit:4;stroke-opacity:1;stroke-dasharray:none"
       id="rect5422"
       width="404.82413"
       height="145.59464"
       x="-22549.412"
       y="-16781.205" />
    <rect
       style="fill:#ffffff;fill-opacity:1;stroke:#010101;stroke-width:10;stroke-linejoin:round;stroke-miterlimit:4;stroke-opacity:1;stroke-dasharray:none"
       id="rect5424"
       width="401.27304"
       height="124.28811"
       x="-22549.414"
       y="-16568.139" />
    <rect
       style="fill:#ffffff;fill-opacity:1;stroke:#010101;stroke-width:10;stroke-linejoin:round;stroke-miterlimit:4;stroke-opacity:1;stroke-dasharray:none"
       id="rect5426"
       width="713.76886"
       height="436.78391"
       x="-22879.666"
       y="-16333.769" />
    <text
       xml:space="preserve"
       style="font-size:40px;font-style:normal;font-weight:normal;line-height:125%;letter-spacing:0px;word-spacing:0px;fill:#000000;fill-opacity:1;stroke:none;font-family:Sans"
       x="-22634.641"
       y="-16905.494"
       id="text5428"
       sodipodi:linespacing="125%"><tspan
         sodipodi:role="line"
         id="tspan5430"
         x="-22634.641"
         y="-16905.494">New Claim</tspan></text>
    <text
       xml:space="preserve"
       style="font-size:40px;font-style:normal;font-weight:normal;line-height:125%;letter-spacing:0px;word-spacing:0px;fill:#000000;fill-opacity:1;stroke:none;font-family:Sans"
       x="-22826.4"
       y="-16710.184"
       id="text5432"
       sodipodi:linespacing="125%"><tspan
         sodipodi:role="line"
         id="tspan5434"
         x="-22826.4"
         y="-16710.184">Start Date</tspan></text>
    <text
       xml:space="preserve"
       style="font-size:40px;font-style:normal;font-weight:normal;line-height:125%;letter-spacing:0px;word-spacing:0px;fill:#000000;fill-opacity:1;stroke:none;font-family:Sans"
       x="-22815.746"
       y="-16482.914"
       id="text5436"
       sodipodi:linespacing="125%"><tspan
         sodipodi:role="line"
         id="tspan5438"
         x="-22815.746"
         y="-16482.914">End Date</tspan></text>
    <text
       xml:space="preserve"
       style="font-size:40px;font-style:normal;font-weight:normal;line-height:125%;letter-spacing:0px;word-spacing:0px;fill:#000000;fill-opacity:1;stroke:none;font-family:Sans"
       x="-22861.91"
       y="-16372.83"
       id="text5440"
       sodipodi:linespacing="125%"><tspan
         sodipodi:role="line"
         id="tspan5442"
         x="-22861.91"
         y="-16372.83">Description</tspan></text>
    <rect
       style="fill:#00ffff;fill-opacity:1;stroke:#010101;stroke-width:10;stroke-linejoin:round;stroke-miterlimit:4;stroke-opacity:1;stroke-dasharray:none"
       id="rect5444"
       width="312.49582"
       height="63.919598"
       x="-22435.779"
       y="-15854.371" />
    <text
       xml:space="preserve"
       style="font-size:40px;font-style:normal;font-weight:normal;line-height:125%;letter-spacing:0px;word-spacing:0px;fill:#000000;fill-opacity:1;stroke:none;font-family:Sans"
       x="-22354.104"
       y="-15808.208"
       id="text5446"
       sodipodi:linespacing="125%"><tspan
         sodipodi:role="line"
         id="tspan5448"
         x="-22354.104"
         y="-15808.208">Create</tspan></text>
    <rect
       style="fill:#ffffff;fill-opacity:1;stroke:#010101;stroke-width:9.05706215;stroke-linejoin:round;stroke-miterlimit:4;stroke-opacity:1;stroke-dasharray:none"
       id="rect5450"
       width="728.91614"
       height="977.49231"
       x="-22841.074"
       y="-14043.787" />
    <text
       xml:space="preserve"
       style="font-size:158.93096924px;font-style:normal;font-weight:normal;line-height:125%;letter-spacing:0px;word-spacing:0px;fill:#000000;fill-opacity:1;stroke:none;font-family:Sans"
       x="-22184.012"
       y="-14262.903"
       id="text5452"
       sodipodi:linespacing="125%"
       transform="scale(1.0279889,0.97277312)"><tspan
         sodipodi:role="line"
         id="tspan5454"
         x="-22184.012"
         y="-14262.903">Claim 1</tspan><tspan
         sodipodi:role="line"
         x="-22184.012"
         y="-14064.239"
         id="tspan5456">Claim 2</tspan><tspan
         sodipodi:role="line"
         x="-22184.012"
         y="-13865.575"
         id="tspan5460">Claim 3</tspan><tspan
         sodipodi:role="line"
         x="-22184.012"
         y="-13666.912"
         id="tspan5464">Claim 4</tspan></text>
    <rect
       style="fill:#00ffff;fill-opacity:1;stroke:#010101;stroke-width:10;stroke-linejoin:round;stroke-miterlimit:4;stroke-opacity:1;stroke-dasharray:none"
       id="rect5466"
       width="337.35342"
       height="152.69682"
       x="-22457.086"
       y="-12985.092" />
    <text
       xml:space="preserve"
       style="font-size:40px;font-style:normal;font-weight:normal;line-height:125%;letter-spacing:0px;word-spacing:0px;fill:#000000;fill-opacity:1;stroke:none;font-family:Sans"
       x="-22414.473"
       y="-12903.417"
       id="text5472"
       sodipodi:linespacing="125%"><tspan
         sodipodi:role="line"
         id="tspan5474"
         x="-22414.473"
         y="-12903.417">Select Claim</tspan></text>
    <rect
       style="fill:#ffffff;fill-opacity:1;stroke:#010101;stroke-width:10;stroke-linejoin:round;stroke-miterlimit:4;stroke-opacity:1;stroke-dasharray:none"
       id="rect5476"
       width="703.1156"
       height="163.35008"
       x="-21611.926"
       y="-14089.48" />
    <text
       xml:space="preserve"
       style="font-size:99.46496582px;font-style:normal;font-weight:normal;line-height:125%;letter-spacing:0px;word-spacing:0px;fill:#000000;fill-opacity:1;stroke:none;font-family:Sans"
       x="-24463.734"
       y="-12242.206"
       id="text5478"
       sodipodi:linespacing="125%"
       transform="scale(0.87700351,1.1402463)"><tspan
         sodipodi:role="line"
         id="tspan5480"
         x="-24463.734"
         y="-12242.206">Claim 4</tspan></text>
    <rect
       style="fill:#ffffff;fill-opacity:1;stroke:#010101;stroke-width:7.96456289;stroke-linejoin:round;stroke-miterlimit:4;stroke-opacity:1;stroke-dasharray:none"
       id="rect5482"
       width="705.15106"
       height="619.92493"
       x="-21609.393"
       y="-13898.739" />
    <text
       xml:space="preserve"
       style="font-size:109.72824097px;font-style:normal;font-weight:normal;line-height:125%;letter-spacing:0px;word-spacing:0px;fill:#000000;fill-opacity:1;stroke:none;font-family:Sans"
       x="-21843.865"
       y="-13583.191"
       id="text5484"
       sodipodi:linespacing="125%"
       transform="scale(0.9865999,1.0135821)"><tspan
         sodipodi:role="line"
         id="tspan5486"
         x="-21843.865"
         y="-13583.191">Expense 1</tspan><tspan
         sodipodi:role="line"
         x="-21843.865"
         y="-13446.031"
         id="tspan5488">Expense 2</tspan><tspan
         sodipodi:role="line"
         x="-21843.865"
         y="-13308.871"
         id="tspan5492">Expense 3</tspan><tspan
         sodipodi:role="line"
         x="-21843.865"
         y="-13171.711"
         id="tspan5496">Expense 4</tspan><tspan
         sodipodi:role="line"
         x="-21843.865"
         y="-13034.55"
         id="tspan5498" /></text>
    <rect
       style="fill:#ffffff;fill-opacity:1;stroke:#010101;stroke-width:8.01130867;stroke-linejoin:round;stroke-miterlimit:4;stroke-opacity:1;stroke-dasharray:none"
       id="rect5500"
       width="705.10431"
       height="122.72571"
       x="-21602.266"
       y="-13188.498" />
    <text
       xml:space="preserve"
       style="font-size:41.52651215px;font-style:normal;font-weight:normal;line-height:125%;letter-spacing:0px;word-spacing:0px;fill:#000000;fill-opacity:1;stroke:none;font-family:Sans"
       x="-22782.268"
       y="-12520.123"
       id="text5502"
       sodipodi:linespacing="125%"
       transform="scale(0.94831486,1.0545021)"><tspan
         sodipodi:role="line"
         id="tspan5504"
         x="-22782.268"
         y="-12520.123">Date Range</tspan></text>
    <text
       xml:space="preserve"
       style="font-size:40px;font-style:normal;font-weight:normal;line-height:125%;letter-spacing:0px;word-spacing:0px;fill:#000000;fill-opacity:1;stroke:none;font-family:Sans"
       x="-21459.229"
       y="-12878.559"
       id="text5506"
       sodipodi:linespacing="125%"><tspan
         sodipodi:role="line"
         id="tspan5508"></tspan></text>
    <rect
       style="fill:#ffffff;fill-opacity:1;stroke:#010101;stroke-width:10;stroke-linejoin:round;stroke-miterlimit:4;stroke-opacity:1;stroke-dasharray:none"
       id="rect5510"
       width="649.84924"
       height="120.73701"
       x="-21597.721"
       y="-12963.785" />
    <text
       xml:space="preserve"
       style="font-size:50.99734879px;font-style:normal;font-weight:normal;line-height:125%;letter-spacing:0px;word-spacing:0px;fill:#000000;fill-opacity:1;stroke:none;font-family:Sans"
       x="-22909.754"
       y="-12240.594"
       id="text5512"
       sodipodi:linespacing="125%"
       transform="scale(0.94290859,1.0605482)"><tspan
         sodipodi:role="line"
         id="tspan5514"
         x="-22909.754"
         y="-12240.594">Status</tspan></text>
    <text
       xml:space="preserve"
       style="font-size:58.75077057px;font-style:normal;font-weight:normal;line-height:125%;letter-spacing:0px;word-spacing:0px;fill:#000000;fill-opacity:1;stroke:none;font-family:Sans"
       x="-29918.15"
       y="-9454.2139"
       id="text5520"
       sodipodi:linespacing="125%"
       transform="scale(0.7213089,1.3863686)"><tspan
         sodipodi:role="line"
         id="tspan5522"
         x="-29918.15"
         y="-9454.2139">15 Jan 2015 to 30 Jan 2015</tspan></text>
    <text
       xml:space="preserve"
       style="font-size:57.88622665px;font-style:normal;font-weight:normal;line-height:125%;letter-spacing:0px;word-spacing:0px;fill:#000000;fill-opacity:1;stroke:none;font-family:Sans"
       x="-25842.729"
       y="-10757.022"
       id="text5524"
       sodipodi:linespacing="125%"
       transform="scale(0.83464016,1.1981211)"><tspan
         sodipodi:role="line"
         id="tspan5526"
         x="-25842.729"
         y="-10757.022">Approved</tspan></text>
    <rect
       style="fill:#008eff;fill-opacity:1;stroke:#010101;stroke-width:50;stroke-linejoin:round;stroke-miterlimit:4;stroke-opacity:1;stroke-dasharray:none"
       id="rect5309-7-0"
       width="930.38525"
       height="1413.3334"
       x="-20646.029"
       y="-14178.257" />
    <rect
       style="fill:#ffffff;fill-opacity:1;stroke:#010101;stroke-width:10;stroke-linejoin:round;stroke-miterlimit:4;stroke-opacity:1;stroke-dasharray:none"
       id="rect5476-1"
       width="703.1156"
       height="163.35008"
       x="-20525.293"
       y="-14096.582" />
    <text
       xml:space="preserve"
       style="font-size:99.46496582px;font-style:normal;font-weight:normal;line-height:125%;letter-spacing:0px;word-spacing:0px;fill:#000000;fill-opacity:1;stroke:none;font-family:Sans"
       x="-23224.705"
       y="-12248.435"
       id="text5478-6"
       sodipodi:linespacing="125%"
       transform="scale(0.87700351,1.1402463)"><tspan
         sodipodi:role="line"
         id="tspan5480-2"
         x="-23224.705"
         y="-12248.435">Claim 4</tspan></text>
    <rect
       style="fill:#ffffff;fill-opacity:1;stroke:#010101;stroke-width:7.96456289;stroke-linejoin:round;stroke-miterlimit:4;stroke-opacity:1;stroke-dasharray:none"
       id="rect5482-2"
       width="705.15106"
       height="619.92493"
       x="-20522.76"
       y="-13905.841" />
    <text
       xml:space="preserve"
       style="font-size:109.72824097px;font-style:normal;font-weight:normal;line-height:125%;letter-spacing:0px;word-spacing:0px;fill:#000000;fill-opacity:1;stroke:none;font-family:Sans"
       x="-20742.475"
       y="-13590.199"
       id="text5484-8"
       sodipodi:linespacing="125%"
       transform="scale(0.9865999,1.0135821)"><tspan
         sodipodi:role="line"
         id="tspan5486-8"
         x="-20742.475"
         y="-13590.199">Expense 1</tspan><tspan
         sodipodi:role="line"
         x="-20742.475"
         y="-13453.039"
         id="tspan5488-0">Expense 2</tspan><tspan
         sodipodi:role="line"
         x="-20742.475"
         y="-13315.879"
         id="tspan5492-5">Expense 3</tspan><tspan
         sodipodi:role="line"
         x="-20742.475"
         y="-13178.719"
         id="tspan5496-2">Expense 4</tspan><tspan
         sodipodi:role="line"
         x="-20742.475"
         y="-13041.558"
         id="tspan5498-2" /></text>
    <rect
       style="fill:#ffffff;fill-opacity:1;stroke:#010101;stroke-width:8.01130867;stroke-linejoin:round;stroke-miterlimit:4;stroke-opacity:1;stroke-dasharray:none"
       id="rect5500-4"
       width="705.10431"
       height="122.72571"
       x="-20515.633"
       y="-13195.6" />
    <text
       xml:space="preserve"
       style="font-size:41.52651215px;font-style:normal;font-weight:normal;line-height:125%;letter-spacing:0px;word-spacing:0px;fill:#000000;fill-opacity:1;stroke:none;font-family:Sans"
       x="-21636.412"
       y="-12526.858"
       id="text5502-5"
       sodipodi:linespacing="125%"
       transform="scale(0.94831485,1.0545021)"><tspan
         sodipodi:role="line"
         id="tspan5504-2"
         x="-21636.412"
         y="-12526.858">Date Range</tspan></text>
    <rect
       style="fill:#ffffff;fill-opacity:1;stroke:#010101;stroke-width:10;stroke-linejoin:round;stroke-miterlimit:4;stroke-opacity:1;stroke-dasharray:none"
       id="rect5510-0"
       width="649.84924"
       height="120.73701"
       x="-20511.088"
       y="-12970.887" />
    <text
       xml:space="preserve"
       style="font-size:50.99734879px;font-style:normal;font-weight:normal;line-height:125%;letter-spacing:0px;word-spacing:0px;fill:#000000;fill-opacity:1;stroke:none;font-family:Sans"
       x="-21757.328"
       y="-12247.29"
       id="text5512-4"
       sodipodi:linespacing="125%"
       transform="scale(0.94290859,1.0605482)"><tspan
         sodipodi:role="line"
         id="tspan5514-9"
         x="-21757.328"
         y="-12247.29">Status</tspan></text>
    <text
       xml:space="preserve"
       style="font-size:58.75077057px;font-style:normal;font-weight:normal;line-height:125%;letter-spacing:0px;word-spacing:0px;fill:#000000;fill-opacity:1;stroke:none;font-family:Sans"
       x="-28411.678"
       y="-9459.3369"
       id="text5520-3"
       sodipodi:linespacing="125%"
       transform="scale(0.7213089,1.3863686)"><tspan
         sodipodi:role="line"
         id="tspan5522-9"
         x="-28411.678"
         y="-9459.3369">15 Jan 2015 to 30 Jan 2015</tspan></text>
    <text
       xml:space="preserve"
       style="font-size:57.88622665px;font-style:normal;font-weight:normal;line-height:125%;letter-spacing:0px;word-spacing:0px;fill:#000000;fill-opacity:1;stroke:none;font-family:Sans"
       x="-24540.812"
       y="-10762.95"
       id="text5524-9"
       sodipodi:linespacing="125%"
       transform="scale(0.83464017,1.1981211)"><tspan
         sodipodi:role="line"
         id="tspan5526-4"
         x="-24540.812"
         y="-10762.95">Approved</tspan></text>
    <rect
       style="fill:#4d4d4d;fill-opacity:1;stroke:#010101;stroke-width:10;stroke-linejoin:round;stroke-miterlimit:4;stroke-opacity:1;stroke-dasharray:none"
       id="rect5606"
       width="159.799"
       height="252.1273"
       x="-19925.158"
       y="-14135.645" />
    <path
       sodipodi:type="arc"
       style="fill:#000000;fill-opacity:1;stroke:#010101;stroke-width:10;stroke-linejoin:round;stroke-miterlimit:4;stroke-opacity:1;stroke-dasharray:none"
       id="path5611"
       sodipodi:cx="-19854.137"
       sodipodi:cy="-14055.745"
       sodipodi:rx="21.306532"
       sodipodi:ry="19.530989"
       d="m -19832.83,-14055.745 a 21.306532,19.530989 0 1 1 -42.613,0 21.306532,19.530989 0 1 1 42.613,0 z" />
    <path
       transform="translate(-6.2467396e-4,129.61484)"
       sodipodi:type="arc"
       style="fill:#000000;fill-opacity:1;stroke:#010101;stroke-width:10;stroke-linejoin:round;stroke-miterlimit:4;stroke-opacity:1;stroke-dasharray:none"
       id="path5611-1"
       sodipodi:cx="-19854.137"
       sodipodi:cy="-14055.745"
       sodipodi:rx="21.306532"
       sodipodi:ry="19.530989"
       d="m -19832.83,-14055.745 a 21.306532,19.530989 0 1 1 -42.613,0 21.306532,19.530989 0 1 1 42.613,0 z" />
    <path
       transform="translate(-6.2467396e-4,69.246338)"
       sodipodi:type="arc"
       style="fill:#000000;fill-opacity:1;stroke:#010101;stroke-width:10;stroke-linejoin:round;stroke-miterlimit:4;stroke-opacity:1;stroke-dasharray:none"
       id="path5611-0"
       sodipodi:cx="-19854.137"
       sodipodi:cy="-14055.745"
       sodipodi:rx="21.306532"
       sodipodi:ry="19.530989"
       d="m -19832.83,-14055.745 a 21.306532,19.530989 0 1 1 -42.613,0 21.306532,19.530989 0 1 1 42.613,0 z" />
    <rect
       style="fill:#b3b3b3;fill-opacity:1;stroke:#010101;stroke-width:10;stroke-linejoin:round;stroke-miterlimit:4;stroke-opacity:1;stroke-dasharray:none"
       id="rect5642"
       width="664.05304"
       height="571.72571"
       x="-20436.516"
       y="-13879.966" />
    <rect
       style="fill:#b3b3b3;fill-opacity:1;stroke:#010101;stroke-width:10;stroke-linejoin:round;stroke-miterlimit:4;stroke-opacity:1;stroke-dasharray:none"
       id="rect5646"
       width="653.40033"
       height="170.45226"
       x="-20432.965"
       y="-13869.312" />
    <rect
       style="fill:#b3b3b3;fill-opacity:1;stroke:#010101;stroke-width:10;stroke-linejoin:round;stroke-miterlimit:4;stroke-opacity:1;stroke-dasharray:none"
       id="rect5646-7"
       width="653.40033"
       height="170.45226"
       x="-20429.414"
       y="-13363.544" />
    <rect
       style="fill:#b3b3b3;fill-opacity:1;stroke:#010101;stroke-width:10;stroke-linejoin:round;stroke-miterlimit:4;stroke-opacity:1;stroke-dasharray:none"
       id="rect5646-4"
       width="653.40033"
       height="170.45226"
       x="-20425.863"
       y="-13691.759" />
    <text
       xml:space="preserve"
       style="font-size:73.9085083px;font-style:normal;font-weight:normal;line-height:125%;letter-spacing:0px;word-spacing:0px;fill:#000000;fill-opacity:1;stroke:none;font-family:Sans"
       x="-27474.703"
       y="-10195.119"
       id="text5675"
       sodipodi:linespacing="125%"
       transform="scale(0.74168597,1.3482795)"><tspan
         sodipodi:role="line"
         id="tspan5677"
         x="-27474.703"
         y="-10195.119">Email Claim</tspan></text>
    <text
       xml:space="preserve"
       style="font-size:76.9576416px;font-style:normal;font-weight:normal;line-height:125%;letter-spacing:0px;word-spacing:0px;fill:#000000;fill-opacity:1;stroke:none;font-family:Sans"
       x="-29046.883"
       y="-9521.6406"
       id="text5679"
       sodipodi:linespacing="125%"
       transform="scale(0.70141668,1.4256861)"><tspan
         sodipodi:role="line"
         id="tspan5681"
         x="-29046.883"
         y="-9521.6406">Edit Expense</tspan></text>
    <text
       xml:space="preserve"
       style="font-size:74.10294342px;font-style:normal;font-weight:normal;line-height:125%;letter-spacing:0px;word-spacing:0px;fill:#000000;fill-opacity:1;stroke:none;font-family:Sans"
       x="-29173.346"
       y="-9250.834"
       id="text5683"
       sodipodi:linespacing="125%"
       transform="scale(0.6987673,1.4310916)"><tspan
         sodipodi:role="line"
         id="tspan5685"
         x="-29173.346"
         y="-9250.834">Change Status</tspan></text>
    <rect
       style="fill:#008eff;fill-opacity:1;stroke:#010101;stroke-width:50;stroke-linejoin:round;stroke-miterlimit:4;stroke-opacity:1;stroke-dasharray:none"
       id="rect5309-1"
       width="930.38525"
       height="1413.3334"
       x="-18403.719"
       y="-11976.521" />
    <rect
       style="fill:#b3b3b3;fill-opacity:1;stroke:#010101;stroke-width:10;stroke-linejoin:round;stroke-miterlimit:4;stroke-opacity:1;stroke-dasharray:none"
       id="rect5646-4-6"
       width="653.40033"
       height="170.45226"
       x="-20434.779"
       y="-13526.35" />
    <text
       xml:space="preserve"
       style="font-size:85.0271225px;font-style:normal;font-weight:normal;line-height:125%;letter-spacing:0px;word-spacing:0px;fill:#000000;fill-opacity:1;stroke:none;font-family:Sans"
       x="-27013.275"
       y="-10122.592"
       id="text5742"
       sodipodi:linespacing="125%"
       transform="scale(0.7547956,1.324862)"><tspan
         sodipodi:role="line"
         id="tspan5744"
         x="-27013.275"
         y="-10122.592">Add Expense</tspan></text>
    <rect
       style="fill:#ffffff;fill-opacity:1;stroke:#010101;stroke-width:10;stroke-linejoin:round;stroke-miterlimit:4;stroke-opacity:1;stroke-dasharray:none"
       id="rect5767"
       width="748.27771"
       height="160.70393"
       x="-18295.139"
       y="-16971.588" />
    <text
       xml:space="preserve"
       style="font-size:126.16285706px;font-style:normal;font-weight:normal;line-height:125%;letter-spacing:0px;word-spacing:0px;fill:#000000;fill-opacity:1;stroke:none;font-family:Sans"
       x="-24458.271"
       y="-12508.408"
       id="text5769"
       sodipodi:linespacing="125%"
       transform="scale(0.74309685,1.3457196)"><tspan
         sodipodi:role="line"
         id="tspan5771"
         x="-24458.271"
         y="-12508.408">Email Claim</tspan></text>
    <text
       xml:space="preserve"
       style="font-size:80.84264374px;font-style:normal;font-weight:normal;line-height:125%;letter-spacing:0px;word-spacing:0px;fill:#000000;fill-opacity:1;stroke:none;font-family:Sans"
       x="-28152.273"
       y="-10805.233"
       id="text5773"
       sodipodi:linespacing="125%"
       transform="scale(0.65008578,1.5382585)"><tspan
         sodipodi:role="line"
         id="tspan5775"
         x="-28152.273"
         y="-10805.233">Email Address:</tspan></text>
    <rect
       style="fill:#ffffff;fill-opacity:1;stroke:#010101;stroke-width:10;stroke-linejoin:round;stroke-miterlimit:4;stroke-opacity:1;stroke-dasharray:none"
       id="rect5777"
       width="749.50995"
       height="156.87561"
       x="-18316.459"
       y="-16555.957" />
    <rect
       style="fill:#ff0000;fill-opacity:1;stroke:#010101;stroke-width:10;stroke-linejoin:round;stroke-miterlimit:4;stroke-opacity:1;stroke-dasharray:none"
       id="rect5779"
       width="321.40787"
       height="165.72594"
       x="-17858.225"
       y="-15972.211" />
    <text
       xml:space="preserve"
       style="font-size:90.79009247px;font-style:normal;font-weight:normal;line-height:125%;letter-spacing:0px;word-spacing:0px;fill:#000000;fill-opacity:1;stroke:none;font-family:Sans"
       x="-21842.982"
       y="-12922.263"
       id="text5785"
       sodipodi:linespacing="125%"
       transform="scale(0.81514619,1.2267738)"><tspan
         sodipodi:role="line"
         id="tspan5787"
         x="-21842.982"
         y="-12922.263">Send</tspan></text>
    <rect
       style="fill:#ffffff;fill-opacity:1;stroke:#010101;stroke-width:10;stroke-linejoin:round;stroke-miterlimit:4;stroke-opacity:1;stroke-dasharray:none"
       id="rect5789"
       width="763.34369"
       height="200.87991"
       x="-18330.293"
       y="-15138.559" />
    <text
       xml:space="preserve"
       style="font-size:78.0118103px;font-style:normal;font-weight:normal;line-height:125%;letter-spacing:0px;word-spacing:0px;fill:#000000;fill-opacity:1;stroke:none;font-family:Sans"
       x="-27552.725"
       y="-9939.709"
       id="text5791"
       sodipodi:linespacing="125%"
       transform="scale(0.66202349,1.5105204)"><tspan
         sodipodi:role="line"
         id="tspan5793"
         x="-27552.725"
         y="-9939.709">Choose and Expense</tspan></text>
    <rect
       style="fill:#ffffff;fill-opacity:1;stroke:#010101;stroke-width:9.44995308;stroke-linejoin:round;stroke-miterlimit:4;stroke-opacity:1;stroke-dasharray:none"
       id="rect5482-9"
       width="703.66565"
       height="874.5614"
       x="-18315.521"
       y="-14865.227" />
    <text
       xml:space="preserve"
       style="font-size:108.66598511px;font-style:normal;font-weight:normal;line-height:125%;letter-spacing:0px;word-spacing:0px;fill:#000000;fill-opacity:1;stroke:none;font-family:Sans"
       x="-18321.299"
       y="-14676.781"
       id="text5484-6"
       sodipodi:linespacing="125%"
       transform="scale(0.99624432,1.0037698)"><tspan
         sodipodi:role="line"
         id="tspan5486-4"
         x="-18321.299"
         y="-14676.781">Expense 1</tspan><tspan
         sodipodi:role="line"
         x="-18321.299"
         y="-14540.949"
         id="tspan5488-9">Expense 2</tspan><tspan
         sodipodi:role="line"
         x="-18321.299"
         y="-14405.116"
         id="tspan5492-7">Expense 3</tspan><tspan
         sodipodi:role="line"
         x="-18321.299"
         y="-14269.284"
         id="tspan5496-24">Expense 4</tspan><tspan
         sodipodi:role="line"
         x="-18321.299"
         y="-14133.451"
         id="tspan5498-1" /></text>
    <rect
       style="fill:#008eff;fill-opacity:1;stroke:#010101;stroke-width:50;stroke-linejoin:round;stroke-miterlimit:4;stroke-opacity:1;stroke-dasharray:none"
       id="rect5309-02"
       width="930.38525"
       height="1413.3334"
       x="-17293.91"
       y="-15247.609" />
    <rect
       style="fill:#ffffff;fill-opacity:1;stroke:#010101;stroke-width:10;stroke-linejoin:round;stroke-miterlimit:4;stroke-opacity:1;stroke-dasharray:none"
       id="rect5789-8"
       width="763.34369"
       height="200.87991"
       x="-17185.277"
       y="-15173.713" />
    <text
       xml:space="preserve"
       style="font-size:125.44049835px;font-style:normal;font-weight:normal;line-height:125%;letter-spacing:0px;word-spacing:0px;fill:#000000;fill-opacity:1;stroke:none;font-family:Sans"
       x="-20790.949"
       y="-12364.203"
       id="text5900"
       sodipodi:linespacing="125%"
       transform="scale(0.82228364,1.2161254)"><tspan
         sodipodi:role="line"
         id="tspan5902"
         x="-20790.949"
         y="-12364.203">Expense 1</tspan></text>
    <rect
       style="fill:#ffffff;fill-opacity:1;stroke:#010101;stroke-width:10;stroke-linejoin:round;stroke-miterlimit:4;stroke-opacity:1;stroke-dasharray:none"
       id="rect5904"
       width="321.40787"
       height="125.54995"
       x="-16743.342"
       y="-14887.459" />
    <rect
       style="fill:#ffffff;fill-opacity:1;stroke:#010101;stroke-width:10;stroke-linejoin:round;stroke-miterlimit:4;stroke-opacity:1;stroke-dasharray:none"
       id="rect5904-4"
       width="321.40787"
       height="125.54995"
       x="-16728.275"
       y="-14719.223" />
    <rect
       style="fill:#ffffff;fill-opacity:1;stroke:#010101;stroke-width:16.54275703;stroke-linejoin:round;stroke-miterlimit:4;stroke-opacity:1;stroke-dasharray:none"
       id="rect5904-42"
       width="425.34906"
       height="259.62314"
       x="-16830.467"
       y="-14168.554" />
    <rect
       style="fill:#ffffff;fill-opacity:1;stroke:#010101;stroke-width:10;stroke-linejoin:round;stroke-miterlimit:4;stroke-opacity:1;stroke-dasharray:none"
       id="rect5904-1"
       width="321.40787"
       height="125.54995"
       x="-16718.23"
       y="-14357.639" />
    <rect
       style="fill:#ffffff;fill-opacity:1;stroke:#010101;stroke-width:10;stroke-linejoin:round;stroke-miterlimit:4;stroke-opacity:1;stroke-dasharray:none"
       id="rect5904-8"
       width="321.40787"
       height="125.54995"
       x="-16733.297"
       y="-14533.408" />
    <text
       xml:space="preserve"
       style="font-size:93.90512848px;font-style:normal;font-weight:normal;line-height:125%;letter-spacing:0px;word-spacing:0px;fill:#000000;fill-opacity:1;stroke:none;font-family:Sans"
       x="-19645.814"
       y="-12895.565"
       id="text5945"
       sodipodi:linespacing="125%"
       transform="scale(0.87291978,1.1455806)"><tspan
         sodipodi:role="line"
         id="tspan5947"
         x="-19645.814"
         y="-12895.565">Date:</tspan></text>
    <text
       xml:space="preserve"
       style="font-size:76.21815491px;font-style:normal;font-weight:normal;line-height:125%;letter-spacing:0px;word-spacing:0px;fill:#000000;fill-opacity:1;stroke:none;font-family:Sans"
       x="-24454.686"
       y="-10247.329"
       id="text5949"
       sodipodi:linespacing="125%"
       transform="scale(0.70112768,1.4262738)"><tspan
         sodipodi:role="line"
         id="tspan5951"
         x="-24454.686"
         y="-10247.329">Category</tspan></text>
    <text
       xml:space="preserve"
       style="font-size:79.70598602px;font-style:normal;font-weight:normal;line-height:125%;letter-spacing:0px;word-spacing:0px;fill:#000000;fill-opacity:1;stroke:none;font-family:Sans"
       x="-24311.676"
       y="-9972.3613"
       id="text5953"
       sodipodi:linespacing="125%"
       transform="scale(0.70755926,1.4133092)"><tspan
         sodipodi:role="line"
         id="tspan5955"
         x="-24311.676"
         y="-9972.3613">Description:</tspan></text>
    <text
       xml:space="preserve"
       style="font-size:67.81840515px;font-style:normal;font-weight:normal;line-height:125%;letter-spacing:0px;word-spacing:0px;fill:#000000;fill-opacity:1;stroke:none;font-family:Sans"
       x="-23480.863"
       y="-10544.229"
       id="text5957"
       sodipodi:linespacing="125%"
       transform="scale(0.73039042,1.3691308)"><tspan
         sodipodi:role="line"
         id="tspan5959"
         x="-23480.863"
         y="-10544.229">Amount Spent:</tspan></text>
    <text
       xml:space="preserve"
       style="font-size:77.53113556px;font-style:normal;font-weight:normal;line-height:125%;letter-spacing:0px;word-spacing:0px;fill:#000000;fill-opacity:1;stroke:none;font-family:Sans"
       x="-26121.105"
       y="-9382.8359"
       id="text5961"
       sodipodi:linespacing="125%"
       transform="scale(0.65794439,1.5198853)"><tspan
         sodipodi:role="line"
         id="tspan5963"
         x="-26121.105"
         y="-9382.8359">Unit of Currency:</tspan></text>
    <rect
       style="fill:#ff0000;fill-opacity:1;stroke:#010101;stroke-width:10;stroke-linejoin:round;stroke-miterlimit:4;stroke-opacity:1;stroke-dasharray:none"
       id="rect5967"
       width="333.06036"
       height="170.79443"
       x="-17211.996"
       y="-14038.788" />
    <text
       xml:space="preserve"
       style="font-size:95.59067535px;font-style:normal;font-weight:normal;line-height:125%;letter-spacing:0px;word-spacing:0px;fill:#000000;fill-opacity:1;stroke:none;font-family:Sans"
       x="-17932.824"
       y="-13342.386"
       id="text5969"
       sodipodi:linespacing="125%"
       transform="scale(0.95822366,1.0435977)"><tspan
         sodipodi:role="line"
         id="tspan5971"
         x="-17932.824"
         y="-13342.386">Save</tspan></text>
    <rect
       style="fill:#008eff;fill-opacity:1;stroke:#010101;stroke-width:50;stroke-linejoin:round;stroke-miterlimit:4;stroke-opacity:1;stroke-dasharray:none"
       id="rect5309-02-7"
       width="930.38525"
       height="1413.3334"
       x="-18403.77"
       y="-13620.48" />
    <rect
       style="fill:#ffffff;fill-opacity:1;stroke:#010101;stroke-width:10;stroke-linejoin:round;stroke-miterlimit:4;stroke-opacity:1;stroke-dasharray:none"
       id="rect5789-8-8"
       width="763.34369"
       height="200.87991"
       x="-18295.137"
       y="-13546.584" />
    <text
       xml:space="preserve"
       style="font-size:125.44049835px;font-style:normal;font-weight:normal;line-height:125%;letter-spacing:0px;word-spacing:0px;fill:#000000;fill-opacity:1;stroke:none;font-family:Sans"
       x="-22140.678"
       y="-11026.242"
       id="text5900-6"
       sodipodi:linespacing="125%"
       transform="scale(0.82228363,1.2161254)"><tspan
         sodipodi:role="line"
         id="tspan5902-3"
         x="-22140.678"
         y="-11026.242">Expense 1</tspan></text>
    <rect
       style="fill:#ffffff;fill-opacity:1;stroke:#010101;stroke-width:10;stroke-linejoin:round;stroke-miterlimit:4;stroke-opacity:1;stroke-dasharray:none"
       id="rect5904-2"
       width="321.40787"
       height="125.54995"
       x="-17853.201"
       y="-13260.33" />
    <rect
       style="fill:#ffffff;fill-opacity:1;stroke:#010101;stroke-width:10;stroke-linejoin:round;stroke-miterlimit:4;stroke-opacity:1;stroke-dasharray:none"
       id="rect5904-4-8"
       width="321.40787"
       height="125.54995"
       x="-17838.135"
       y="-13092.094" />
    <rect
       style="fill:#ffffff;fill-opacity:1;stroke:#010101;stroke-width:16.54275703;stroke-linejoin:round;stroke-miterlimit:4;stroke-opacity:1;stroke-dasharray:none"
       id="rect5904-42-1"
       width="425.34906"
       height="259.62314"
       x="-17940.326"
       y="-12541.425" />
    <rect
       style="fill:#ffffff;fill-opacity:1;stroke:#010101;stroke-width:10;stroke-linejoin:round;stroke-miterlimit:4;stroke-opacity:1;stroke-dasharray:none"
       id="rect5904-1-6"
       width="321.40787"
       height="125.54995"
       x="-17828.09"
       y="-12730.51" />
    <rect
       style="fill:#ffffff;fill-opacity:1;stroke:#010101;stroke-width:10;stroke-linejoin:round;stroke-miterlimit:4;stroke-opacity:1;stroke-dasharray:none"
       id="rect5904-8-7"
       width="321.40787"
       height="125.54995"
       x="-17843.156"
       y="-12906.279" />
    <text
       xml:space="preserve"
       style="font-size:93.90512848px;font-style:normal;font-weight:normal;line-height:125%;letter-spacing:0px;word-spacing:0px;fill:#000000;fill-opacity:1;stroke:none;font-family:Sans"
       x="-20917.246"
       y="-11475.213"
       id="text5945-1"
       sodipodi:linespacing="125%"
       transform="scale(0.87291981,1.1455806)"><tspan
         sodipodi:role="line"
         id="tspan5947-3"
         x="-20917.246"
         y="-11475.213">Date:</tspan></text>
    <text
       xml:space="preserve"
       style="font-size:76.21815491px;font-style:normal;font-weight:normal;line-height:125%;letter-spacing:0px;word-spacing:0px;fill:#000000;fill-opacity:1;stroke:none;font-family:Sans"
       x="-26037.648"
       y="-9106.5039"
       id="text5949-4"
       sodipodi:linespacing="125%"
       transform="scale(0.70112766,1.4262738)"><tspan
         sodipodi:role="line"
         id="tspan5951-9"
         x="-26037.648"
         y="-9106.5039">Category</tspan></text>
    <text
       xml:space="preserve"
       style="font-size:79.70598602px;font-style:normal;font-weight:normal;line-height:125%;letter-spacing:0px;word-spacing:0px;fill:#000000;fill-opacity:1;stroke:none;font-family:Sans"
       x="-25880.25"
       y="-8821.0713"
       id="text5953-6"
       sodipodi:linespacing="125%"
       transform="scale(0.70755926,1.4133092)"><tspan
         sodipodi:role="line"
         id="tspan5955-3"
         x="-25880.25"
         y="-8821.0713">Description:</tspan></text>
    <text
       xml:space="preserve"
       style="font-size:67.81840515px;font-style:normal;font-weight:normal;line-height:125%;letter-spacing:0px;word-spacing:0px;fill:#000000;fill-opacity:1;stroke:none;font-family:Sans"
       x="-25000.406"
       y="-9355.7891"
       id="text5957-8"
       sodipodi:linespacing="125%"
       transform="scale(0.73039041,1.3691308)"><tspan
         sodipodi:role="line"
         id="tspan5959-6"
         x="-25000.406"
         y="-9355.7891">Amount Spent:</tspan></text>
    <text
       xml:space="preserve"
       style="font-size:77.53113556px;font-style:normal;font-weight:normal;line-height:125%;letter-spacing:0px;word-spacing:0px;fill:#000000;fill-opacity:1;stroke:none;font-family:Sans"
       x="-27807.965"
       y="-8312.2754"
       id="text5961-5"
       sodipodi:linespacing="125%"
       transform="scale(0.65794439,1.5198853)"><tspan
         sodipodi:role="line"
         id="tspan5963-1"
         x="-27807.965"
         y="-8312.2754">Unit of Currency:</tspan></text>
    <rect
       style="fill:#ff0000;fill-opacity:1;stroke:#010101;stroke-width:10;stroke-linejoin:round;stroke-miterlimit:4;stroke-opacity:1;stroke-dasharray:none"
       id="rect5967-2"
       width="333.06036"
       height="170.79443"
       x="-18326.074"
       y="-12436.747" />
    <text
       xml:space="preserve"
       style="font-size:95.59067535px;font-style:normal;font-weight:normal;line-height:125%;letter-spacing:0px;word-spacing:0px;fill:#000000;fill-opacity:1;stroke:none;font-family:Sans"
       x="-19095.473"
       y="-11807.272"
       id="text5969-8"
       sodipodi:linespacing="125%"
       transform="scale(0.95822366,1.0435977)"><tspan
         sodipodi:role="line"
         id="tspan5971-3"
         x="-19095.473"
         y="-11807.272">Save</tspan></text>
    <rect
       style="fill:#ffffff;fill-opacity:1;stroke:#010101;stroke-width:10;stroke-linejoin:round;stroke-miterlimit:4;stroke-opacity:1;stroke-dasharray:none"
       id="rect6190"
       width="743.25568"
       height="170.74792"
       x="-18280.072"
       y="-11849.15" />
    <rect
       style="fill:#ffffff;fill-opacity:1;stroke:#010101;stroke-width:10;stroke-linejoin:round;stroke-miterlimit:4;stroke-opacity:1;stroke-dasharray:none"
       id="rect6192"
       width="396.73782"
       height="185.81392"
       x="-17968.709"
       y="-11497.61" />
    <text
       xml:space="preserve"
       style="font-size:40px;font-style:normal;font-weight:normal;line-height:125%;letter-spacing:0px;word-spacing:0px;fill:#000000;fill-opacity:1;stroke:none;font-family:Sans"
       x="-18094.258"
       y="-11768.798"
       id="text6194"
       sodipodi:linespacing="125%"><tspan
         sodipodi:role="line"
         id="tspan6196"></tspan></text>
    <text
       xml:space="preserve"
       style="font-size:94.63586426px;font-style:normal;font-weight:normal;line-height:125%;letter-spacing:0px;word-spacing:0px;fill:#000000;fill-opacity:1;stroke:none;font-family:Sans"
       x="-24619.24"
       y="-8651.8125"
       id="text6202"
       sodipodi:linespacing="125%"
       transform="scale(0.73809202,1.3548446)"><tspan
         sodipodi:role="line"
         id="tspan6204"
         x="-24619.24"
         y="-8651.8125">Change Status</tspan></text>
    <text
       xml:space="preserve"
       style="font-size:40px;font-style:normal;font-weight:normal;line-height:125%;letter-spacing:0px;word-spacing:0px;fill:#000000;fill-opacity:1;stroke:none;font-family:Sans"
       x="-18290.115"
       y="-11397.171"
       id="text6206"
       sodipodi:linespacing="125%"><tspan
         sodipodi:role="line"
         id="tspan6208"
         x="-18290.115"
         y="-11397.171">New Status:</tspan></text>
    <rect
       style="fill:#ff0000;fill-opacity:1;stroke:#010101;stroke-width:10;stroke-linejoin:round;stroke-miterlimit:4;stroke-opacity:1;stroke-dasharray:none"
       id="rect5967-2-7"
       width="333.06036"
       height="170.79443"
       x="-18240.699"
       y="-10854.818" />
    <text
       xml:space="preserve"
       style="font-size:95.59067535px;font-style:normal;font-weight:normal;line-height:125%;letter-spacing:0px;word-spacing:0px;fill:#000000;fill-opacity:1;stroke:none;font-family:Sans"
       x="-19006.377"
       y="-10291.431"
       id="text5969-8-6"
       sodipodi:linespacing="125%"
       transform="scale(0.95822366,1.0435977)"><tspan
         sodipodi:role="line"
         id="tspan5971-3-6"
         x="-19006.377"
         y="-10291.431">Save</tspan></text>
    <path
       style="fill:#000000;fill-opacity:1;stroke:#010101;stroke-width:10;stroke-linejoin:round;stroke-miterlimit:4;stroke-opacity:1;stroke-dasharray:none"
       id="path6236"
       d="m -19621.482,-13800.43 c 17.671,-1.27 35.261,-2.364 52.762,-5.148 12.431,-3.095 26.034,-4.279 37.826,-9.347 11.43,-3.987 22.229,-9.408 33.319,-14.19 1.683,-0.895 6.704,-3.636 5.05,-2.686 -196.112,112.644 159.41,-91.961 -39.562,22.17 24.381,-17.308 49.389,-29.781 76.495,-45.562 1.487,-0.866 5.965,-3.435 4.473,-2.578 -60.76,34.91 -77.971,47.54 -55.597,31.384 7.901,-4.758 15.095,-10.501 22.632,-15.799 9.244,-5.894 18.081,-12.501 26.635,-19.36 11.036,-7.899 21.879,-16.089 33.011,-23.87 13.68,-8.849 26.27,-19.189 38.409,-30.015 13.232,-11.853 22.35,-27.118 31.788,-41.94 13.369,-19.416 23.257,-40.85 34.057,-61.729 13.841,-31.453 26.191,-63.528 39.218,-95.331 16.313,-38.073 31.835,-76.411 46.508,-115.143 12.4,-34.985 27.125,-68.928 44.116,-101.922 8.709,-18.075 21.216,-33.866 31.225,-51.149 7.812,-13.488 7.52,-14.16 13.558,-28.714 10.228,-27.843 19.653,-55.94 30.568,-83.527 6.695,-16.223 15.339,-31.528 22.86,-47.365 6.961,-13.399 13.449,-27.028 20.147,-40.555 7.763,-14.124 15.893,-27.733 20.793,-43.158 4.105,-14.64 6.458,-29.623 9.048,-44.57 2.266,-13.339 4.483,-26.645 7.336,-39.871 2.126,-12.027 4.803,-23.973 8.094,-35.735 3.559,-12.194 4.614,-24.834 5.221,-37.458 0.186,-13.256 2.55,-26.343 3.899,-39.51 1.055,-12.463 1.285,-24.979 1.417,-37.481 0.01,-13.108 0.132,-26.216 0.09,-39.324 -0.04,-11.836 -0.183,-23.672 -0.107,-35.507 -0.01,-13.196 0.128,-26.391 0.09,-39.586 0.02,-13.57 -0.02,-27.14 -0.03,-40.709 -0.04,-11.512 -0.09,-23.023 -0.115,-34.534 -0.08,-12.417 0.169,-24.833 0.19,-37.25 0.01,-14.834 0.04,-29.666 -0.05,-44.5 -0.03,-12.557 -0.05,-25.114 -0.1,-37.671 1.335,-10.849 -2.518,-20.444 -5.595,-30.579 -3.919,-11.318 -6.639,-22.916 -8.243,-34.772 -2.465,-10.276 -3.445,-20.893 -6.102,-31.104 -5.234,-11.104 -10.027,-22.235 -12.868,-34.203 -1,-9.4 -3.472,-18.494 -5.282,-27.746 0,0 65.721,-35.028 65.721,-35.028 l 0,0 c 1.635,9.237 4.409,18.224 4.971,27.636 2.415,11.912 7.038,22.938 12.536,33.76 3.464,10.415 3.818,21.564 6.76,32.176 1.252,11.502 3.53,22.821 7.702,33.658 3.122,10.775 7.976,21.012 6.506,32.519 -0.05,12.59 -0.07,25.18 -0.1,37.769 -0.09,14.85 -0.06,29.699 -0.05,44.549 0.02,12.353 0.265,24.705 0.189,37.058 -0.03,11.55 -0.08,23.1 -0.114,34.651 -0.01,13.58 -0.05,27.16 -0.03,40.741 -0.03,13.163 0.103,26.325 0.1,39.489 0.08,11.863 -0.05,23.726 -0.07,35.59 -0.02,13.112 0.159,26.223 0.04,39.334 -0.08,12.697 -0.223,25.398 -1.224,38.063 -1.033,13.116 -3.571,26.071 -4.082,39.203 -0.472,13.047 -0.969,26.187 -4.364,38.875 -3.071,11.69 -6.468,23.321 -8.319,35.295 -2.483,13.319 -5.86,26.412 -7.661,39.874 -2.87,15.128 -4.712,30.437 -8.794,45.334 -4.416,16.04 -11.421,30.357 -20.197,44.471 -7.281,13.087 -12.381,27.35 -20.209,40.18 -7.273,16.137 -16.219,31.366 -23.745,47.387 -11.488,27.566 -21.824,55.537 -31.41,83.822 -5.507,14.841 -5.331,16.008 -12.774,29.743 -9.507,17.542 -22.742,32.781 -31.529,50.792 -11.069,20.395 -22.291,41.4 -30.938,62.957 -2.556,6.371 -4.409,13.004 -6.812,19.434 -2.401,6.424 -5.066,12.746 -7.598,19.118 -14.725,38.719 -30.02,77.147 -46.303,115.239 -12.853,31.719 -25.063,63.645 -37.868,95.367 -10.453,21.041 -20.244,42.512 -33.216,62.144 -9.551,14.926 -17.805,30.911 -30.612,43.419 -11.587,11.487 -24.419,21.854 -37.936,30.966 -10.999,7.733 -21.436,16.157 -32.931,23.078 -8.188,7.43 -17.335,13.66 -26.108,20.312 -8.107,4.528 -14.627,11.074 -22.737,15.442 -33.556,22.825 -146.427,85.585 -16.781,10.77 3.083,-1.779 -12.375,7.724 -8.582,6.355 -220.796,128.426 46.119,-26.668 -19.556,11.405 -71.568,41.488 -44.109,28.543 -73.315,42.102 -10.995,5.04 -22.178,9.653 -33.627,13.568 -12.649,3.263 -25.411,6.365 -38.374,8.066 -17.746,2.325 -35.655,2.843 -53.374,5.424 0,0 59.624,-44.463 59.624,-44.463 z"
       inkscape:connector-curvature="0" />
    <path
       style="fill:#000000;fill-opacity:1;stroke:#010101;stroke-width:10;stroke-linejoin:round;stroke-miterlimit:4;stroke-opacity:1;stroke-dasharray:none"
       id="path6251"
       d="m -19061.542,-15301.622 c 1.287,-14.399 -0.289,-28.515 -3.832,-42.45 -3.166,-11.215 -8.83,-21.302 -14.735,-31.251 -6.723,-11.695 -13.267,-23.456 -19.737,-35.289 -8.847,-15.227 -19,-29.61 -29.265,-43.899 -9.024,-13.283 -18.263,-26.435 -27.795,-39.36 -10.467,-12.384 -18.138,-26.702 -27.134,-40.11 -9.586,-13.873 -17.94,-28.524 -27.221,-42.588 -8.873,-14.008 -16.693,-28.65 -23.515,-43.754 -8.962,-17.628 -12.846,-36.792 -15.407,-56.212 -1.852,-17.863 -1.853,-35.847 -1.995,-53.785 -0.916,-16.984 0.387,-33.373 4.813,-49.776 6.1,-20.698 11.919,-41.46 18.217,-62.1 6.813,-22.883 16.367,-44.825 25.355,-66.911 5.806,-15.295 12.681,-30.166 19.49,-45.037 7.439,-14.925 14.156,-30.181 22.377,-44.703 9.07,-13.964 16.369,-28.949 24.956,-43.202 8.427,-13.361 17.271,-26.463 25.165,-40.152 5.431,-13.383 12.936,-25.656 20.287,-38.033 5.58,-10.505 13.201,-19.63 20.432,-28.997 8.2,-7.224 14.901,-15.924 22.912,-23.307 24.336,-24.287 53.421,-33.567 84.136,-53.604 18.876,-12.314 -39.162,22.315 -58.744,33.473 9.076,-7.825 19.373,-13.978 29.295,-20.638 27.071,-18.055 56.16,-32.862 84.021,-49.6 19.157,-11.509 -38.695,22.369 -58.125,33.411 -1.761,1.001 3.409,-2.189 5.113,-3.284 27.426,-18.17 57.006,-33.287 85.168,-49.996 15.809,-9.38 -192.25,110.745 10.453,-6.217 -19.545,11.227 -39.05,22.525 -58.636,33.68 -1.789,1.02 3.462,-2.233 5.242,-3.268 22.877,-13.3 45.905,-26.342 68.728,-39.734 19.252,-11.298 -77.649,44.061 -58.013,33.446 25.028,-13.53 49.362,-28.309 74.141,-42.29 -3.624,3.307 14.981,-7.371 11.357,-5.294 -19.623,11.243 -39.223,22.527 -58.925,33.63 -1.638,0.923 3.092,-2.147 4.722,-3.083 22.793,-13.097 45.52,-26.317 68.54,-39.013 1.604,-0.884 3.488,-1.115 5.232,-1.672 11.189,-4.258 22.522,-8.257 34.267,-10.754 10.062,-2.343 19.374,-6.634 29.2,-9.613 12.555,-2.655 25.578,-2.238 38.354,-2.442 13.555,-0.221 27.111,-0.185 40.666,-0.165 6.084,0.677 12.483,-0.857 18.543,0.03 5.9,0.86 10.039,3.801 16.089,3.581 8.956,-26.134 1.169,-1.07 -60.815,33.232 -0.817,0.453 0.764,-1.759 0.779,-2.694 0.02,-1.062 -0.349,-2.105 -0.685,-3.113 -1.24,-3.715 -2.483,-5.643 -4.355,-9.119 -6.648,-11.909 -15.669,-22.275 -23.852,-33.13 -9.333,-11.063 -16.14,-23.962 -25.953,-34.591 -7.723,-9.719 -18.425,-15.947 -28.814,-22.359 -1.893,-1.996 -19.047,-13.037 -20.945,-12.611 -0.743,0.166 0.192,1.509 0.288,2.263 21.42,-12.589 41.918,-26.899 64.261,-37.767 1.769,-0.86 2.097,3.331 3.236,4.935 7.258,10.223 14.762,20.364 22.58,30.158 15.34,19.229 30.166,38.877 46.033,57.677 11.795,14.649 24.955,28.059 38.668,40.898 11.232,10.008 17.54,15.941 17.286,31.469 -0.904,10.873 -7.536,19.596 -12.14,29.093 -7.794,15.657 -17.98,29.925 -26.932,44.917 -7.548,11.641 -15.28,23.15 -22.706,34.869 -5.373,9.961 -11.744,19.359 -16.886,29.441 -3.125,8.015 -7.84,14.526 -13.768,20.596 0,0 -68.574,29.385 -68.574,29.385 l 0,0 c 2.388,-3.754 4.658,-5.171 7.806,-8.062 2.819,-2.588 2.664,-3.74 4.533,-7.112 0.745,-1.345 1.604,-2.624 2.406,-3.936 4.423,-10.803 11.491,-20.03 16.764,-30.391 7.194,-12.032 14.95,-23.697 23.246,-35.001 8.788,-14.692 18.164,-28.963 26.7,-43.793 3.7,-9.364 9.546,-17.243 13.083,-26.657 1.733,-14.71 -3.236,-15.87 -13.652,-26.096 -13.668,-13.205 -26.501,-27.21 -38.482,-41.97 -15.818,-18.897 -30.155,-39.015 -46.146,-57.785 -8.044,-9.888 -15.803,-20.011 -23.638,-30.067 -1.38,-1.771 -5.742,-3.891 -4.058,-5.377 18.769,-16.568 40.351,-29.645 60.527,-44.467 6.671,6.129 16.253,8.674 22.769,15.232 10.946,6.802 21.843,13.883 29.805,24.242 9.612,11.068 16.973,23.782 26.252,35.142 8.378,11.165 17.694,21.697 24.648,33.87 17.294,30.665 17.658,74.095 -59.949,61.779 -11.441,-2.663 -22.019,-4.088 -33.883,-3.18 -13.442,-0.03 -26.886,-0.08 -40.326,0.135 -12.597,0.355 -25.526,0.373 -37.544,4.637 -9.615,3.568 -19.443,6.397 -29.383,8.937 -11.479,3.131 -22.678,7.217 -33.741,11.582 -25.411,11.683 -5.387,2.661 53.909,-31.909 1.6,-0.933 -3.249,1.784 -4.849,2.717 -27.186,15.869 -51.609,32.201 -79.264,45.312 -1.788,0.955 -7.116,3.887 -5.366,2.865 19.333,-11.294 77.614,-44.685 58.116,-33.681 -23.064,13.017 -45.687,26.807 -68.811,39.717 -19.526,10.901 38.678,-22.46 58.017,-33.69 -1.714,1.093 -3.386,2.254 -5.14,3.281 -22.719,13.293 -45.517,26.449 -68.275,39.674 195.255,-113.66 -147.262,84.643 47.232,-27.197 3.756,-2.159 -7.427,4.462 -11.155,6.67 -1.685,0.998 -3.33,2.063 -4.996,3.094 -25.764,18.974 -9.747,7.457 -73.612,43.502 -19.391,10.944 38.365,-22.614 57.697,-33.663 13.718,-7.841 -27.997,19.262 -15.08,9.64 -9.784,6.872 -20.072,12.769 -29.466,20.11 -104.468,62.818 -76.071,45.364 -8.893,6.327 1.495,-0.869 -2.99,1.749 -4.389,2.765 -2.863,2.077 -5.6,4.336 -8.21,6.724 -1.396,1.277 -2.645,2.707 -3.968,4.061 -0.118,0.09 -8.214,6.591 -8.473,6.868 -4.834,5.181 -8.383,11.799 -14.626,15.673 -6.346,5.466 -1.5,0.656 -6.62,7.793 -4.804,6.698 -11.364,12.06 -14.785,19.782 -7.104,12.499 -15.94,24.159 -20.471,37.949 -7.483,14.067 -16.583,27.149 -25.142,40.568 -9.055,13.978 -16.058,29.075 -24.974,43.109 -9.059,13.894 -14.934,29.342 -22.816,43.874 -6.514,15.05 -13.783,29.772 -19.875,44.986 -9.168,21.98 -19.244,43.703 -26.146,66.525 -6.275,20.431 -11.498,41.093 -17.439,61.611 -5.183,16.641 -6.809,30.418 -5.736,47.898 -0.08,17.708 -0.122,35.45 1.411,53.106 2.047,18.763 5.569,37.271 14.413,54.178 6.773,14.726 14.498,28.95 23.06,42.722 9.167,14.103 17.614,28.661 27.087,42.568 8.961,13.332 16.851,27.377 27.221,39.722 9.422,13.026 18.588,26.254 27.592,39.567 10.354,14.551 20.623,29.173 29.759,44.535 6.713,11.621 13.399,23.244 20.05,34.904 6.284,10.559 12.234,21.294 15.684,33.17 3.629,14.431 5.449,28.949 5.077,43.874 0,0 -66.383,33.824 -66.383,33.824 z"
       inkscape:connector-curvature="0" />
    <path
       style="fill:#000000;fill-opacity:1;stroke:#010101;stroke-width:10;stroke-linejoin:round;stroke-miterlimit:4;stroke-opacity:1;stroke-dasharray:none"
       id="path6253"
       d="m -19585.784,-13627.732 c 16.892,2.5 33.968,3.262 51.012,3.865 21.548,0.856 42.995,3.282 64.546,4.41 33.669,3.579 66.295,-3.194 98.503,-12.344 40.374,-13.094 78.531,-31.939 116.586,-50.519 27.165,-12.709 53.296,-27.635 80.645,-39.958 13.334,-6.008 26.941,-11.397 40.298,-17.356 21.091,-11.835 85.759,-42.086 -15.37,10.664 -4.175,2.177 7.699,-5.432 11.386,-8.361 10.305,-8.185 10.437,-9.111 19.534,-18.961 26.555,-33.127 46.332,-71.019 67.03,-107.917 26.055,-44.425 50.037,-90.012 75.161,-134.959 19.15,-33.58 41.682,-65.012 63.858,-96.611 18.608,-26.463 39.672,-50.983 60.73,-75.48 13.174,-16.579 27.847,-31.975 40.861,-48.68 5.989,-7.686 11.548,-15.699 17.434,-23.465 12.735,-18.702 23.989,-38.332 36.586,-57.156 9.712,-14.019 17.894,-29.003 26.897,-43.476 8.158,-13.758 18.417,-26.07 28.482,-38.444 8.514,-11.285 19.014,-20.564 30.328,-28.918 28.881,-19.698 59.19,-37.575 91.032,-51.824 4.261,-2.205 9.192,-2.006 13.685,-3.212 3.981,-1.069 7.722,-2.881 11.781,-3.883 9.581,-0.746 18.712,-3.018 28.109,-4.878 3.541,-0.539 5.754,-0.487 8.861,-2.37 1.123,-0.681 4.112,-3.239 2.969,-2.591 -20.632,11.681 -40.651,24.444 -61.502,35.73 -0.893,0.484 0.768,-1.909 0.883,-2.919 0.158,-1.388 -0.05,-2.794 -0.07,-4.192 -1.926,-11.8 -10.398,-20.914 -17.813,-29.798 -7.897,-7.964 -18.051,-13.205 -28.162,-17.819 -10.047,-6.015 -18.768,-13.341 -29.986,-17.25 -5.343,-0.766 -9.001,-5.73 -13.966,-7.238 -2.412,-0.733 -2.858,-0.03 -4.332,1.068 21.229,-12.577 42.457,-25.153 63.686,-37.729 3.148,8.778 10.549,13.737 17.369,19.413 11.498,7.087 21.884,15.891 33.488,22.777 8.355,5.828 15.741,13.163 22.345,20.909 8.096,8.665 11.462,19.127 13.181,30.584 2.531,16.298 0.809,31.929 -3.308,47.745 -3.459,13.797 -8.357,27.173 -11.957,40.924 -2.419,11.836 -4.734,23.694 -7.951,35.343 -2.314,9.03 -5.285,17.972 -9.303,26.395 -3.335,6.922 -6.116,14.044 -8.56,21.321 0,0 -67.39,31.345 -67.39,31.345 l 0,0 c 2.994,-7.168 4.609,-14.819 8.082,-21.827 3.956,-8.198 8.058,-16.442 10.148,-25.376 3.334,-11.556 6.357,-23.228 8.094,-35.148 3.297,-14.026 8.751,-27.369 12.345,-41.32 4.617,-15.808 6.801,-28.295 4.279,-44.831 -1.381,-10.122 -3.953,-19.236 -11.365,-26.728 -6.294,-7.087 -13.067,-13.936 -20.993,-19.191 -11.436,-7.631 -22.385,-15.994 -33.865,-23.563 -8.722,-6.842 -16.387,-14.019 -21.21,-24.228 72.933,-47.232 42.599,-49.132 82.88,-31.983 10.805,4.827 19.796,12.281 30.254,17.692 10.808,5.484 21.595,11.366 29.628,20.688 8.293,10.231 17.511,20.292 20.424,33.529 0.04,0.328 1.378,10.063 1.01,10.336 -34.978,25.923 -45.706,39.529 -77.452,45.239 -9.281,2.016 -18.736,2.901 -27.906,5.383 -8.233,2.627 -16.824,4.143 -24.622,7.986 -2.173,1.07 -25.072,13.42 -13.391,6.534 102.936,-60.675 71.393,-42.175 49.511,-28.312 -11.397,8.038 -22.869,16.019 -31.355,27.298 -10.152,12.109 -20.497,24.263 -28.925,37.634 -9.338,14.41 -17.414,29.593 -27.089,43.756 -7.771,11.601 -16.071,22.959 -23.193,34.98 -2.223,3.752 -4.015,7.751 -6.286,11.475 -2.411,3.954 -5.164,7.69 -7.746,11.535 -28.456,35.815 11.242,-14.629 -17.666,23.767 -12.748,16.932 -27.78,32.07 -40.787,48.804 -20.789,24.619 -42.453,48.536 -61.086,74.916 -22.505,31.743 -45.689,63.064 -65.547,96.586 -25.682,44.683 -49.237,90.557 -75.364,134.992 -20.324,36.756 -39.562,74.445 -64.454,108.385 -3.012,3.729 -5.756,7.693 -9.036,11.189 -33.956,36.192 -85.265,55.368 -129.15,77.934 -13.264,5.781 -26.672,11.242 -39.806,17.315 -27.279,12.612 -53.584,27.281 -80.785,40.06 -38.353,18.592 -76.871,37.42 -117.789,49.774 -33.174,8.683 -66.678,14.771 -101.126,11.414 -21.617,-1.179 -43.154,-3.581 -64.803,-4.065 -17.434,-0.63 -34.82,-1.944 -52.163,-3.848 0,0 60.712,-42.966 60.712,-42.966 z"
       inkscape:connector-curvature="0" />
    <path
       style="fill:#000000;fill-opacity:1;stroke:#010101;stroke-width:10;stroke-linejoin:round;stroke-miterlimit:4;stroke-opacity:1;stroke-dasharray:none"
       id="path6255"
       d="m -19586.328,-13468.978 c 25.784,-5.322 51.807,-9.482 77.639,-14.642 43.582,-9.705 87.904,-13.525 132.388,-15.876 48.906,-1.9 97.852,-2.477 146.788,-2.996 17.153,-0.111 34.594,-1.542 51.407,2.902 3.918,1.036 13.639,5.062 17.582,6.644 20.433,9.385 39.193,21.729 58.736,32.792 19.251,9.973 37.42,22.306 53.521,36.842 16.002,15.068 30.049,31.952 44.404,48.542 17.013,20.271 34.15,40.376 50.212,61.415 12.072,17.269 25.06,33.865 37.303,51.009 10.194,16.679 24.377,29.092 39.841,40.623 20.181,14.623 44.179,22.964 66.881,32.875 14.821,7.598 30.554,12.978 46.335,18.141 10.989,5.11 20.329,12.514 29.611,20.154 7.22,7.809 14.652,15.438 23.189,21.823 10.918,7.333 20.935,15.78 30.972,24.245 10.57,9.498 21.097,19.194 30.791,29.603 8.342,8.227 17.719,15.407 27.554,21.757 8.616,3.605 15.578,10.063 23.952,14.024 7.133,4.411 14.583,8.331 22.021,12.267 8.707,2.986 17.434,6.083 26.334,8.521 3.5,0.987 7.309,4.804 11.138,4.762 1.969,-0.02 6.051,-4.969 4.324,-4.023 -20.728,11.354 -40.944,23.62 -61.416,35.43 0.433,-0.44 1.138,-0.724 1.299,-1.32 1.589,-5.906 -4.287,-20.501 -6.156,-26.151 -5.306,-15.798 -11.751,-31.037 -19.322,-45.871 -7.786,-16.028 -18.188,-30.536 -27.798,-45.475 -7.902,-11.545 -15.25,-23.42 -22.871,-35.144 -6.06,-7.728 -11.741,-15.74 -17.345,-23.795 -0.757,-1.36 -1.418,-2.777 -2.27,-4.079 -0.408,-0.624 -1.189,-2.351 -1.49,-1.669 -0.455,1.032 -0.233,3.807 0.772,3.295 21.683,-11.048 42.233,-24.192 63.49,-36.039 0.313,-0.174 -0.549,0.587 -0.513,0.943 0.15,1.48 0.698,2.891 1.047,4.337 6.748,12.58 12.362,25.708 18.852,38.417 6.691,14.613 16.408,27.456 24.7,41.114 9.4,15.65 19.492,30.874 28.646,46.671 6.547,11.198 13.986,21.85 19.546,33.595 3.979,11.809 -2.801,18.345 -11.729,24.703 -26.307,17.685 -54.914,32.399 -82.101,48.169 -18.47,10.714 74.557,-41.625 55.509,-31.975 -27.278,13.819 -53.268,30.05 -80.065,44.781 -23.213,11.054 -64.679,34.765 38.556,-22.965 2.486,-1.39 -4.804,3.059 -7.191,4.613 -7.757,5.051 -5.451,3.501 -12.497,8.728 -10.716,7.18 -18.76,16.943 -27.237,26.461 -7.762,8.147 -15.246,16.539 -22.718,24.95 0,0 -68.32,28.954 -68.32,28.954 l 0,0 c 7.167,-8.819 15.111,-16.985 22.886,-25.276 8.738,-9.499 15.805,-20.415 26.816,-27.565 6.197,-5.335 12.658,-10.038 19.719,-14.204 28.991,-17.104 57.02,-35.114 87.215,-49.688 2.907,-1.479 11.512,-6.119 8.719,-4.435 -18.077,10.897 -73.104,42.229 -54.592,32.088 23.811,-13.044 46.983,-27.221 70.494,-40.799 18.621,-10.754 -37.213,21.558 -55.825,32.327 -3.88,2.245 14.397,-8.295 11.524,-6.93 3.358,-2.325 15.067,-7.938 16.202,-11.873 0.327,-1.134 0.01,-2.36 0.02,-3.54 -5.238,-11.67 -12.684,-22.112 -18.88,-33.273 -8.778,-15.912 -18.615,-31.2 -28.406,-46.502 -8.544,-13.73 -18.268,-26.823 -25.063,-41.577 -6.697,-13.12 -12.548,-26.637 -20.094,-39.321 -0.526,-1.555 -1.041,-3.114 -1.578,-4.666 -0.594,-1.718 -3.301,-4.092 -1.817,-5.142 41.538,-29.372 55.404,-61.033 71.852,-30.388 5.615,8.149 11.329,16.22 17.179,24.207 7.449,11.838 14.852,23.693 22.548,35.373 9.503,15.265 20.044,29.925 28.001,46.111 7.843,15.086 14.406,30.636 20.188,46.621 3.904,11.054 7.77,22.338 8.866,34.071 -62.124,38.244 -46.267,49.565 -84.326,34.954 -9.116,-2.998 -18.465,-5.54 -27.072,-9.832 -7.387,-4.062 -15.07,-7.547 -22.15,-12.146 -8.112,-4.783 -15.709,-10.426 -24.055,-14.844 -10.037,-6.978 -19.909,-14.287 -28.332,-23.207 -9.681,-10.041 -19.465,-20.055 -30.222,-28.954 -10.059,-8.373 -20.286,-16.463 -31.098,-23.853 -8.333,-6.731 -15.941,-14.189 -23.311,-21.946 -8.703,-7.041 -17.406,-14.055 -28.031,-18.054 -15.608,-5.621 -31.036,-11.624 -45.786,-19.288 -23.069,-10.483 -47.481,-19.114 -68.133,-34.052 -15.898,-12.16 -30.381,-25.358 -41.031,-42.562 -11.973,-17.218 -25.094,-33.601 -36.766,-51.033 -15.825,-21.026 -32.535,-41.252 -49.981,-60.965 -14.319,-16.252 -28.318,-32.838 -44.259,-47.561 -15.888,-13.992 -33.595,-25.819 -52.248,-35.823 -19.304,-11.041 -38.291,-22.785 -58.809,-31.489 -21.917,-8.411 -42.376,-9.126 -65.767,-8.452 -48.473,-0.208 -96.973,-0.12 -145.393,2.464 -44.758,2.907 -89.257,7.751 -133.091,17.608 -26.692,5.233 -53.357,10.533 -80.039,15.797 0,0 59.624,-44.463 59.624,-44.463 z"
       inkscape:connector-curvature="0" />
    <path
       style="fill:#000000;fill-opacity:1;stroke:#010101;stroke-width:10;stroke-linejoin:round;stroke-miterlimit:4;stroke-opacity:1;stroke-dasharray:none"
       id="path6257"
       d="m -19606.068,-13298.097 c 28.039,19.812 61.497,30.544 93.164,43.088 59.24,25.228 121.757,41.331 183.316,59.775 60.71,18.019 121.84,34.483 180.502,58.546 17.194,8.308 36.558,15.76 49.288,30.792 5.375,6.347 5.909,8.948 9.209,16.377 10.274,34.376 7.53,71.424 7.633,106.907 -1.861,83.976 0.408,167.857 3.253,251.777 3.272,91.922 4.449,183.898 5.487,275.867 1.005,78.338 0.739,156.681 0.731,235.022 0.07,74.234 0.176,148.468 0.233,222.703 0.546,69.53 -1.043,139.094 1.265,208.595 1.995,65.817 11.818,131.139 22.475,196.029 7.392,51.929 25.274,101.24 45.233,149.45 19.939,44.562 42.783,87.729 63.401,131.974 16.724,31.87 31.401,64.854 52.933,93.862 11.792,16.192 24.803,24.083 42.872,31.408 20.903,6.75 43.032,7.382 64.795,8.122 35.558,-4.051 68.929,-19.389 101.704,-32.946 25.558,-11.127 22.409,-9.152 46.32,-21.841 6.468,-3.433 25.555,-14.313 19.232,-10.62 -87.182,50.925 -40.727,23.896 -21.973,8.999 12.679,-9.733 21.754,-21.832 29.83,-35.347 5.424,-7.968 11.099,-15.799 17.582,-22.943 2.713,-2.741 4.212,-6.049 5.638,-9.551 0,0 67.375,-31.833 67.375,-31.833 l 0,0 c -0.977,4.287 -1.934,8.526 -4.405,12.263 -5.886,7.561 -12.956,14.169 -18.264,22.249 -3.851,5.458 -6.489,11.489 -10.215,17.005 -4.708,6.97 -5.661,7.026 -11.906,13.025 -2.74,2.633 -5.445,5.302 -8.168,7.953 -30.896,26.227 -64.082,41.836 -100.836,62.752 -21.013,11.959 -43.045,22.127 -65.367,31.361 -33.858,13.957 -68.589,30.668 -105.756,32.13 -22.519,-1.039 -45.427,-1.993 -66.795,-9.914 -18.065,-7.803 -33.31,-18.57 -44.334,-35.302 -20.525,-30.217 -35.428,-63.488 -51.772,-96.055 -20.429,-44.45 -43.387,-87.677 -63.391,-132.327 -19.988,-48.833 -38.118,-98.748 -45.181,-151.337 -10.003,-65.363 -19.508,-131.088 -22.011,-197.224 -2.551,-69.613 -0.629,-139.292 -1.119,-208.94 0.08,-74.332 0.229,-148.664 0.343,-222.996 0.02,-78.44 -0.153,-156.88 -0.04,-235.321 -0.287,-92.05 -1.288,-184.104 -4.621,-276.102 -3.024,-83.377 -6.237,-166.723 -6.682,-250.166 -0.988,-34.151 -0,-69.561 -9.713,-102.62 -9.988,-24.231 -30.601,-32.797 -53.024,-44.066 -57.571,-25.331 -118.279,-41.277 -178.511,-58.954 -61.997,-18.477 -124.74,-35.001 -184.74,-59.456 -33.155,-12.39 -67.484,-23.197 -97.716,-42.01 0,0 62.723,-40.16 62.723,-40.16 z"
       inkscape:connector-curvature="0" />
    <path
       style="fill:#000000;fill-opacity:1;stroke:#010101;stroke-width:10;stroke-linejoin:round;stroke-miterlimit:4;stroke-opacity:1;stroke-dasharray:none"
       id="path6259"
       d="m -18566.307,-11390.896 c 16.457,8.268 33.073,16.063 50.062,23.167 13.656,5.099 27.551,9.695 39.428,18.322 8.699,6.173 17.891,11.692 26.237,18.339 7.843,6.987 17.51,11.778 24.819,19.307 7.297,5.816 10.192,14.001 11.908,22.841 0.507,12.957 -7.876,23.064 -14.364,33.507 -9.724,14.238 -16.926,29.797 -23.91,45.482 -3.728,8.23 -1.988,4.215 -5.245,12.035 0,0 -67.252,31.086 -67.252,31.086 l 0,0 c 3.223,-8.28 1.446,-4.085 5.373,-12.568 7.7,-15.431 13.429,-31.937 23.51,-46.121 5.521,-9.464 12.581,-18.116 16.124,-28.471 -1.154,-7.645 -3.342,-13.875 -9.644,-18.838 -7.343,-6.92 -16.345,-12.049 -24.003,-18.63 -8.641,-6.111 -17.515,-11.89 -26.075,-18.119 -11.705,-7.766 -25.255,-11.884 -38.113,-17.34 -17.067,-7.296 -33.47,-16.024 -50.792,-22.723 0,0 61.937,-41.276 61.937,-41.276 z"
       inkscape:connector-curvature="0" />
  </g>
</svg>
